<svg xmlns="http://www.w3.org/2000/svg" xmlns:xlink="http://www.w3.org/1999/xlink" xmlns:lucid="lucid" width="890" height="607.43"><g transform="translate(-660 -260)" lucid:page-tab-id="tnNuSF.fDlY9"><path d="M784 299.75c0 10.9-8.84 19.75-19.75 19.75-10.9 0-19.75-8.84-19.75-19.75 0-10.9 8.84-19.75 19.75-19.75 10.9 0 19.75 8.84 19.75 19.75z" stroke="#333" stroke-width="3" fill-opacity="0"/><path d="M764.25 319.5v47.3a27.6 27.6 0 0 0 4.28 14.76L804.25 438m-40-63.2l-40 63.2m0-98.75h80" stroke="#333" stroke-width="3" fill="none"/><path d="M724.25 288a8 8 0 0 1 8-8h64a8 8 0 0 1 8 8v164a8 8 0 0 1-8 8h-64a8 8 0 0 1-8-8z" fill="none"/><use xlink:href="#a" transform="matrix(1,0,0,1,644.2490889327872,438) translate(73.70370370370371 17.422222222222224)"/><path d="M1220 542c0 9.94-40.3 18-90 18s-90-8.06-90-18V398c0-9.94 40.3-18 90-18s90 8.06 90 18z" stroke="#333" fill="#ced4db"/><path d="M1220 398c0 9.94-40.3 18-90 18s-90-8.06-90-18" stroke="#333" fill="none"/><use xlink:href="#b" transform="matrix(1,0,0,1,1045,421) translate(25.740740740740744 71.85972222222223)"/><use xlink:href="#c" transform="matrix(1,0,0,1,1045,421) translate(71.17283950617285 71.85972222222223)"/><use xlink:href="#d" transform="matrix(1,0,0,1,1045,421) translate(95.8641975308642 71.85972222222223)"/><path d="M1360 403.08v122.8c0 12.7 28.55 23.06 63.73 23.06V403.08H1360z" stroke="#000" stroke-opacity="0" stroke-width="3" fill="#0072c6"/><path d="M1422.85 548.94h.9c35.15 0 63.7-10.36 63.7-23.05V403.07h-64.6v145.86z" stroke="#000" stroke-opacity="0" stroke-width="3" fill="#0072c6"/><path d="M1422.85 548.94h.9c35.15 0 63.7-10.36 63.7-23.05V403.07h-64.6v145.86z" stroke="#000" stroke-opacity="0" stroke-width="3" fill="#fff" fill-opacity=".15"/><path d="M1487.45 403.08c0 12.74-28.55 23.08-63.72 23.08-35.18 0-63.73-10.34-63.73-23.08 0-12.74 28.55-23.08 63.73-23.08 35.17 0 63.72 10.34 63.72 23.08" stroke="#000" stroke-opacity="0" stroke-width="3" fill="#fff"/><path d="M1474.42 401.75c0 8.4-22.7 15.23-50.7 15.23-27.98 0-50.7-6.82-50.7-15.23 0-8.4 22.72-15.23 50.7-15.23 28 0 50.7 6.82 50.7 15.23" stroke="#000" stroke-opacity="0" stroke-width="3" fill="#7fba00"/><path d="M1463.78 411.06c6.7-2.58 10.65-5.8 10.65-9.3 0-8.42-22.72-15.24-50.7-15.24-28 0-50.7 6.82-50.7 15.24 0 3.5 3.95 6.72 10.65 9.3 9.22-3.6 23.72-5.92 40.05-5.92 16.32 0 30.82 2.3 40.05 5.92" stroke="#000" stroke-opacity="0" stroke-width="3" fill="#b8d432"/><path d="M1403.5 484.9c0 3.83-1.4 6.78-4.2 8.87-2.7 2.1-6.6 3.16-11.4 3.16-4.2 0-7.6-.77-10.4-2.24v-9.03c3.2 2.75 6.7 4.13 10.6 4.13 1.9 0 3.3-.4 4.3-1.12 1-.77 1.5-1.73 1.5-3 0-1.23-.4-2.25-1.4-3.17-1-.9-3-2.02-6-3.45-6.1-2.9-9.2-6.82-9.2-11.76 0-3.63 1.3-6.53 4-8.72 2.7-2.2 6.2-3.26 10.7-3.26 3.9 0 7.1.5 9.7 1.53v8.4c-2.7-1.9-5.8-2.8-9.2-2.8-1.8 0-3.1.35-4.2 1.12-1 .66-1.5 1.73-1.5 2.95 0 1.28.4 2.3 1.3 3.1.8.82 2.4 1.84 5 3 3.7 1.8 6.4 3.63 8 5.46 1.6 1.84 2.4 4.08 2.4 6.83zm43.23-9.06c0 4.7-1.1 8.8-3.2 12.28-2.2 3.5-5.2 5.9-9.1 7.33l11.7 10.8h-11.8l-8.3-9.32c-3.6-.16-6.8-1.07-9.7-2.85-2.8-1.74-5.12-4.18-6.62-7.24-1.6-3.05-2.4-6.46-2.4-10.23 0-4.12.9-7.84 2.6-11.1 1.7-3.26 4-5.8 7.12-7.54 3.1-1.78 6.6-2.64 10.5-2.64 3.7 0 7.1.86 10 2.54 2.9 1.74 5.2 4.13 6.8 7.3 1.62 3.1 2.4 6.66 2.4 10.68zm-9.5.46c0-4.07-.9-7.28-2.7-9.63-1.7-2.4-4.2-3.56-7.3-3.56-3.1 0-5.6 1.18-7.5 3.57-1.9 2.4-2.8 5.56-2.8 9.48 0 3.92.9 7.08 2.7 9.42 1.9 2.34 4.3 3.5 7.4 3.5 3.1 0 5.6-1.1 7.4-3.4 1.9-2.3 2.8-5.4 2.8-9.37zm40.12 19.9h-23.9V456h9v32.9h14.9z" stroke="#000" stroke-opacity="0" stroke-width="3" fill="#fff"/><path d="M1479.85 546.87l7.26 3.13.75-.88 5.8-6.8h5.85l6.66 7.68 7.26-3-.07-1.22-.6-8.97 4.13-4.2 10.06.6 3.06-7.4-.87-.76-6.66-5.9v-6l7.53-6.8-2.93-7.4-1.2.06-8.8.6-4.05-4.2.53-10.27-7.2-3.13-.8.88-5.78 6.8h-5.87l-6.66-7.68-7.25 3 .05 1.22.6 8.97-4.13 4.2-10.05-.6-3.07 7.34.87.82 6.66 5.9v6l-7.53 6.8 2.93 7.4 1.2-.06 8.8-.6 4.12 4.2-.6 10.27zm2.07-37.26c3.46-8.3 12.85-12.23 21.04-8.7 8.13 3.54 12 13.13 8.53 21.5-3.48 8.3-12.87 12.16-21.06 8.7-8.12-3.54-11.92-13.13-8.52-21.5" stroke="#000" stroke-opacity="0" stroke-width="3" fill="#a0a1a2"/><use xlink:href="#e" transform="matrix(1,0,0,1,1330,559) translate(63.875 14.4)"/><use xlink:href="#f" transform="matrix(1,0,0,1,1330,559) translate(104.225 14.4)"/><path d="M680 508a8 8 0 0 1 8-8h152.5a8 8 0 0 1 8 8v68.25a8 8 0 0 1-8 8H688a8 8 0 0 1-8-8z" stroke="#333" fill="#ccc"/><use xlink:href="#g" transform="matrix(1,0,0,1,692,512) translate(17.759259259259256 32.672222222222224)"/><path d="M680 648.4a8 8 0 0 1 8-8h152.5a8 8 0 0 1 8 8v68.26a8 8 0 0 1-8 8H688a8 8 0 0 1-8-8z" stroke="#333" fill="#ccc"/><use xlink:href="#h" transform="matrix(1,0,0,1,692,652.415148221312) translate(31.561728395061724 32.672222222222224)"/><path d="M680 771.18a8 8 0 0 1 8-8h152.5a8 8 0 0 1 8 8v68.25a8 8 0 0 1-8 8H688a8 8 0 0 1-8-8z" stroke="#333" fill="#ccc"/><use xlink:href="#i" transform="matrix(1,0,0,1,692,775.1828874449886) translate(24.67283950617284 32.672222222222224)"/><path d="M804.75 370h105.13a12 12 0 0 1 12 12v76a12 12 0 0 0 12 12h89.24" stroke="#333" fill="none"/><path d="M804.76 370.5h-3.5v-1h3.5z" stroke="#333" stroke-width=".05" fill="#333"/><path d="M1037.88 470l-14.26 4.63v-9.26z" stroke="#333" fill="#333"/><path d="M849.5 542.13h82.75a12 12 0 0 0 12-12V482a12 12 0 0 1 12-12h66.87" stroke="#333" fill="none"/><path d="M849.5 542.63h-.5v-1h.5z" stroke="#333" stroke-width=".05" fill="#333"/><path d="M1037.88 470l-14.26 4.63v-9.26z" stroke="#333" fill="#333"/><path d="M849.5 682.54h82.75a12 12 0 0 0 12-12V482a12 12 0 0 1 12-12h66.87" stroke="#333" fill="none"/><path d="M849.5 683.04h-.5v-1h.5z" stroke="#333" stroke-width=".05" fill="#333"/><path d="M1037.88 470l-14.26 4.63v-9.26z" stroke="#333" fill="#333"/><path d="M849.5 805.3h82.75a12 12 0 0 0 12-12V482a12 12 0 0 1 12-12h66.87" stroke="#333" fill="none"/><path d="M849.5 805.8h-.5v-1h.5z" stroke="#333" stroke-width=".05" fill="#333"/><path d="M1037.88 470l-14.26 4.63v-9.26z" stroke="#333" fill="#333"/><path d="M1221 470h122.62" stroke="#333" fill="none"/><path d="M1221 470.5h-.5v-1h.5z" stroke="#333" stroke-width=".05" fill="#333"/><path d="M1358.38 470l-14.26 4.63v-9.26z" stroke="#333" fill="#333"/><defs><path fill="#333" d="M232-93c-1 65-40 97-104 97C67 4 28-28 28-90v-158h33c8 89-33 224 67 224 102 0 64-133 71-224h33v155" id="j"/><path fill="#333" d="M59-47c-2 24 18 29 38 22v24C64 9 27 4 27-40v-127H5v-23h24l9-43h21v43h35v23H59v120" id="k"/><path fill="#333" d="M24-231v-30h32v30H24zM24 0v-190h32V0H24" id="l"/><path fill="#333" d="M24 0v-261h32V0H24" id="m"/><path fill="#333" d="M9 0v-24l116-142H16v-24h144v24L44-24h123V0H9" id="n"/><path fill="#333" d="M141-36C126-15 110 5 73 4 37 3 15-17 15-53c-1-64 63-63 125-63 3-35-9-54-41-54-24 1-41 7-42 31l-33-3c5-37 33-52 76-52 45 0 72 20 72 64v82c-1 20 7 32 28 27v20c-31 9-61-2-59-35zM48-53c0 20 12 33 32 33 41-3 63-29 60-74-43 2-92-5-92 41" id="o"/><path fill="#333" d="M85-194c31 0 48 13 60 33l-1-100h32l1 261h-30c-2-10 0-23-3-31C134-8 116 4 85 4 32 4 16-35 15-94c0-66 23-100 70-100zm9 24c-40 0-46 34-46 75 0 40 6 74 45 74 42 0 51-32 51-76 0-42-9-74-50-73" id="p"/><path fill="#333" d="M100-194c62-1 85 37 85 99 1 63-27 99-86 99S16-35 15-95c0-66 28-99 85-99zM99-20c44 1 53-31 53-75 0-43-8-75-51-75s-53 32-53 75 10 74 51 75" id="q"/><path fill="#333" d="M114-163C36-179 61-72 57 0H25l-1-190h30c1 12-1 29 2 39 6-27 23-49 58-41v29" id="r"/><path fill="#333" d="M100-194c63 0 86 42 84 106H49c0 40 14 67 53 68 26 1 43-12 49-29l28 8c-11 28-37 45-77 45C44 4 14-33 15-96c1-61 26-98 85-98zm52 81c6-60-76-77-97-28-3 7-6 17-6 28h103" id="s"/><path fill="#333" d="M135-143c-3-34-86-38-87 0 15 53 115 12 119 90S17 21 10-45l28-5c4 36 97 45 98 0-10-56-113-15-118-90-4-57 82-63 122-42 12 7 21 19 24 35" id="t"/><g id="a"><use transform="matrix(0.04938271604938272,0,0,0.04938271604938272,0,0)" xlink:href="#j"/><use transform="matrix(0.04938271604938272,0,0,0.04938271604938272,12.790123456790125,0)" xlink:href="#k"/><use transform="matrix(0.04938271604938272,0,0,0.04938271604938272,17.7283950617284,0)" xlink:href="#l"/><use transform="matrix(0.04938271604938272,0,0,0.04938271604938272,21.629629629629633,0)" xlink:href="#m"/><use transform="matrix(0.04938271604938272,0,0,0.04938271604938272,25.530864197530867,0)" xlink:href="#l"/><use transform="matrix(0.04938271604938272,0,0,0.04938271604938272,29.4320987654321,0)" xlink:href="#n"/><use transform="matrix(0.04938271604938272,0,0,0.04938271604938272,38.32098765432099,0)" xlink:href="#o"/><use transform="matrix(0.04938271604938272,0,0,0.04938271604938272,48.19753086419753,0)" xlink:href="#p"/><use transform="matrix(0.04938271604938272,0,0,0.04938271604938272,58.074074074074076,0)" xlink:href="#q"/><use transform="matrix(0.04938271604938272,0,0,0.04938271604938272,67.95061728395062,0)" xlink:href="#r"/><use transform="matrix(0.04938271604938272,0,0,0.04938271604938272,73.82716049382717,0)" xlink:href="#s"/><use transform="matrix(0.04938271604938272,0,0,0.04938271604938272,83.70370370370371,0)" xlink:href="#t"/></g><path fill="#333" d="M160-131c35 5 61 23 61 61C221 17 115-2 30 0v-248c76 3 177-17 177 60 0 33-19 50-47 57zm-97-11c50-1 110 9 110-42 0-47-63-36-110-37v79zm0 115c55-2 124 14 124-45 0-56-70-42-124-44v89" id="u"/><g id="b"><use transform="matrix(0.04938271604938272,0,0,0.04938271604938272,0,0)" xlink:href="#u"/><use transform="matrix(0.04938271604938272,0,0,0.04938271604938272,11.851851851851853,0)" xlink:href="#o"/><use transform="matrix(0.04938271604938272,0,0,0.04938271604938272,21.7283950617284,0)" xlink:href="#t"/><use transform="matrix(0.04938271604938272,0,0,0.04938271604938272,30.617283950617285,0)" xlink:href="#s"/></g><g id="c"><use transform="matrix(0.04938271604938272,0,0,0.04938271604938272,0,0)" xlink:href="#p"/><use transform="matrix(0.04938271604938272,0,0,0.04938271604938272,9.876543209876544,0)" xlink:href="#s"/></g><g id="d"><use transform="matrix(0.04938271604938272,0,0,0.04938271604938272,0,0)" xlink:href="#p"/><use transform="matrix(0.04938271604938272,0,0,0.04938271604938272,9.876543209876544,0)" xlink:href="#o"/><use transform="matrix(0.04938271604938272,0,0,0.04938271604938272,19.75308641975309,0)" xlink:href="#p"/><use transform="matrix(0.04938271604938272,0,0,0.04938271604938272,29.629629629629633,0)" xlink:href="#q"/><use transform="matrix(0.04938271604938272,0,0,0.04938271604938272,39.50617283950618,0)" xlink:href="#t"/></g><path d="M185-189c-5-48-123-54-124 2 14 75 158 14 163 119 3 78-121 87-175 55-17-10-28-26-33-46l33-7c5 56 141 63 141-1 0-78-155-14-162-118-5-82 145-84 179-34 5 7 8 16 11 25" id="v"/><path d="M140-251c81 0 123 46 123 126C263-53 228-8 163 1c7 30 30 48 69 40v23c-55 16-95-15-103-61C56-3 17-48 17-125c0-80 42-126 123-126zm0 227c63 0 89-41 89-101s-29-99-89-99c-61 0-89 39-89 99S79-25 140-24" id="w"/><path d="M30 0v-248h33v221h125V0H30" id="x"/><g id="e"><use transform="matrix(0.05,0,0,0.05,0,0)" xlink:href="#v"/><use transform="matrix(0.05,0,0,0.05,12,0)" xlink:href="#w"/><use transform="matrix(0.05,0,0,0.05,26,0)" xlink:href="#x"/></g><path d="M100-194c63 0 86 42 84 106H49c0 40 14 67 53 68 26 1 43-12 49-29l28 8c-11 28-37 45-77 45C44 4 14-33 15-96c1-61 26-98 85-98zm52 81c6-60-76-77-97-28-3 7-6 17-6 28h103" id="y"/><path d="M114-163C36-179 61-72 57 0H25l-1-190h30c1 12-1 29 2 39 6-27 23-49 58-41v29" id="z"/><path d="M108 0H70L1-190h34L89-25l56-165h34" id="A"/><path d="M135-143c-3-34-86-38-87 0 15 53 115 12 119 90S17 21 10-45l28-5c4 36 97 45 98 0-10-56-113-15-118-90-4-57 82-63 122-42 12 7 21 19 24 35" id="B"/><g id="f"><use transform="matrix(0.05,0,0,0.05,0,0)" xlink:href="#v"/><use transform="matrix(0.05,0,0,0.05,12,0)" xlink:href="#y"/><use transform="matrix(0.05,0,0,0.05,22,0)" xlink:href="#z"/><use transform="matrix(0.05,0,0,0.05,27.950000000000003,0)" xlink:href="#A"/><use transform="matrix(0.05,0,0,0.05,36.95,0)" xlink:href="#y"/><use transform="matrix(0.05,0,0,0.05,46.95,0)" xlink:href="#z"/><use transform="matrix(0.05,0,0,0.05,52.900000000000006,0)" xlink:href="#B"/></g><path fill="#333" d="M140-251c81 0 123 46 123 126C263-53 228-8 163 1c7 30 30 48 69 40v23c-55 16-95-15-103-61C56-3 17-48 17-125c0-80 42-126 123-126zm0 227c63 0 89-41 89-101s-29-99-89-99c-61 0-89 39-89 99S79-25 140-24" id="C"/><path fill="#333" d="M84 4C-5 8 30-112 23-190h32v120c0 31 7 50 39 49 72-2 45-101 50-169h31l1 190h-30c-1-10 1-25-2-33-11 22-28 36-60 37" id="D"/><path fill="#333" d="M117-194c89-4 53 116 60 194h-32v-121c0-31-8-49-39-48C34-167 62-67 57 0H25l-1-190h30c1 10-1 24 2 32 11-22 29-35 61-36" id="E"/><g id="g"><use transform="matrix(0.04938271604938272,0,0,0.04938271604938272,0,0)" xlink:href="#C"/><use transform="matrix(0.04938271604938272,0,0,0.04938271604938272,13.827160493827162,0)" xlink:href="#D"/><use transform="matrix(0.04938271604938272,0,0,0.04938271604938272,23.703703703703706,0)" xlink:href="#s"/><use transform="matrix(0.04938271604938272,0,0,0.04938271604938272,33.580246913580254,0)" xlink:href="#t"/><use transform="matrix(0.04938271604938272,0,0,0.04938271604938272,42.46913580246914,0)" xlink:href="#k"/><use transform="matrix(0.04938271604938272,0,0,0.04938271604938272,47.40740740740741,0)" xlink:href="#l"/><use transform="matrix(0.04938271604938272,0,0,0.04938271604938272,51.308641975308646,0)" xlink:href="#q"/><use transform="matrix(0.04938271604938272,0,0,0.04938271604938272,61.18518518518519,0)" xlink:href="#E"/><use transform="matrix(0.04938271604938272,0,0,0.04938271604938272,71.06172839506173,0)" xlink:href="#o"/><use transform="matrix(0.04938271604938272,0,0,0.04938271604938272,80.93827160493828,0)" xlink:href="#r"/><use transform="matrix(0.04938271604938272,0,0,0.04938271604938272,86.81481481481482,0)" xlink:href="#l"/><use transform="matrix(0.04938271604938272,0,0,0.04938271604938272,90.71604938271606,0)" xlink:href="#q"/><use transform="matrix(0.04938271604938272,0,0,0.04938271604938272,100.59259259259261,0)" xlink:href="#t"/></g><path fill="#333" d="M205 0l-28-72H64L36 0H1l101-248h38L239 0h-34zm-38-99l-47-123c-12 45-31 82-46 123h93" id="F"/><path fill="#333" d="M108 0H70L1-190h34L89-25l56-165h34" id="G"/><g id="h"><use transform="matrix(0.04938271604938272,0,0,0.04938271604938272,0,0)" xlink:href="#F"/><use transform="matrix(0.04938271604938272,0,0,0.04938271604938272,11.851851851851853,0)" xlink:href="#k"/><use transform="matrix(0.04938271604938272,0,0,0.04938271604938272,16.790123456790127,0)" xlink:href="#l"/><use transform="matrix(0.04938271604938272,0,0,0.04938271604938272,20.69135802469136,0)" xlink:href="#G"/><use transform="matrix(0.04938271604938272,0,0,0.04938271604938272,29.58024691358025,0)" xlink:href="#l"/><use transform="matrix(0.04938271604938272,0,0,0.04938271604938272,33.48148148148149,0)" xlink:href="#p"/><use transform="matrix(0.04938271604938272,0,0,0.04938271604938272,43.35802469135803,0)" xlink:href="#o"/><use transform="matrix(0.04938271604938272,0,0,0.04938271604938272,53.23456790123457,0)" xlink:href="#p"/><use transform="matrix(0.04938271604938272,0,0,0.04938271604938272,63.111111111111114,0)" xlink:href="#s"/><use transform="matrix(0.04938271604938272,0,0,0.04938271604938272,72.98765432098767,0)" xlink:href="#t"/></g><path fill="#333" d="M140-251c81 0 123 46 123 126C263-46 219 4 140 4 59 4 17-45 17-125s42-126 123-126zm0 227c63 0 89-41 89-101s-29-99-89-99c-61 0-89 39-89 99S79-25 140-24" id="H"/><path fill="#333" d="M96-169c-40 0-48 33-48 73s9 75 48 75c24 0 41-14 43-38l32 2c-6 37-31 61-74 61-59 0-76-41-82-99-10-93 101-131 147-64 4 7 5 14 7 22l-32 3c-4-21-16-35-41-35" id="I"/><g id="i"><use transform="matrix(0.04938271604938272,0,0,0.04938271604938272,0,0)" xlink:href="#H"/><use transform="matrix(0.04938271604938272,0,0,0.04938271604938272,13.827160493827162,0)" xlink:href="#I"/><use transform="matrix(0.04938271604938272,0,0,0.04938271604938272,22.71604938271605,0)" xlink:href="#q"/><use transform="matrix(0.04938271604938272,0,0,0.04938271604938272,32.592592592592595,0)" xlink:href="#r"/><use transform="matrix(0.04938271604938272,0,0,0.04938271604938272,38.46913580246914,0)" xlink:href="#r"/><use transform="matrix(0.04938271604938272,0,0,0.04938271604938272,44.345679012345684,0)" xlink:href="#s"/><use transform="matrix(0.04938271604938272,0,0,0.04938271604938272,54.22222222222223,0)" xlink:href="#E"/><use transform="matrix(0.04938271604938272,0,0,0.04938271604938272,64.09876543209877,0)" xlink:href="#I"/><use transform="matrix(0.04938271604938272,0,0,0.04938271604938272,72.98765432098766,0)" xlink:href="#l"/><use transform="matrix(0.04938271604938272,0,0,0.04938271604938272,76.8888888888889,0)" xlink:href="#o"/><use transform="matrix(0.04938271604938272,0,0,0.04938271604938272,86.76543209876544,0)" xlink:href="#t"/></g></defs></g></svg>