<svg width="240" height="30" viewBox="0 0 240 30" fill="none" xmlns="http://www.w3.org/2000/svg">
<path d="M5.4 24.6H17.8V29H0.8V0.999998H17.6V5.4H5.4V12.68H16.6V17.04H5.4V24.6ZM35.0166 29.52C30.8032 29.52 27.3099 28.1333 24.5366 25.36C21.7632 22.56 20.3766 19.1067 20.3766 15C20.3766 10.8933 21.7632 7.45333 24.5366 4.68C27.3099 1.88 30.8032 0.479998 35.0166 0.479998C37.5499 0.479998 39.8832 1.08 42.0166 2.28C44.1766 3.48 45.8566 5.10667 47.0566 7.16L43.0566 9.48C42.3099 8.09333 41.2166 7 39.7766 6.2C38.3632 5.37333 36.7766 4.96 35.0166 4.96C32.0299 4.96 29.6032 5.90667 27.7366 7.8C25.8966 9.69333 24.9766 12.0933 24.9766 15C24.9766 17.9067 25.8966 20.3067 27.7366 22.2C29.6032 24.0933 32.0299 25.04 35.0166 25.04C36.7766 25.04 38.3766 24.64 39.8166 23.84C41.2566 23.0133 42.3366 21.9067 43.0566 20.52L47.0566 22.8C45.8832 24.8533 44.2166 26.4933 42.0566 27.72C39.9232 28.92 37.5766 29.52 35.0166 29.52ZM74.0828 25.32C71.2828 28.12 67.8561 29.52 63.8028 29.52C59.7495 29.52 56.3095 28.12 53.4828 25.32C50.6828 22.4933 49.2828 19.0533 49.2828 15C49.2828 10.9467 50.6828 7.52 53.4828 4.72C56.3095 1.89333 59.7495 0.479998 63.8028 0.479998C67.8561 0.479998 71.2828 1.89333 74.0828 4.72C76.9095 7.52 78.3228 10.9467 78.3228 15C78.3228 19.0533 76.9095 22.4933 74.0828 25.32ZM56.7228 22.2C58.6428 24.0933 61.0028 25.04 63.8028 25.04C66.6028 25.04 68.9495 24.0933 70.8428 22.2C72.7628 20.28 73.7228 17.88 73.7228 15C73.7228 12.12 72.7628 9.73333 70.8428 7.84C68.9495 5.92 66.6028 4.96 63.8028 4.96C61.0028 4.96 58.6428 5.92 56.7228 7.84C54.8295 9.73333 53.8828 12.12 53.8828 15C53.8828 17.88 54.8295 20.28 56.7228 22.2Z" fill="black"/>
<path d="M95.7588 29.52C91.5454 29.52 88.0521 28.1333 85.2788 25.36C82.5054 22.56 81.1188 19.1067 81.1188 15C81.1188 10.8933 82.5054 7.45333 85.2788 4.68C88.0521 1.88 91.5454 0.479998 95.7588 0.479998C98.2921 0.479998 100.625 1.08 102.759 2.28C104.919 3.48 106.599 5.10667 107.799 7.16L103.799 9.48C103.052 8.09333 101.959 7 100.519 6.2C99.1054 5.37333 97.5188 4.96 95.7588 4.96C92.7721 4.96 90.3454 5.90667 88.4788 7.8C86.6388 9.69333 85.7188 12.0933 85.7188 15C85.7188 17.9067 86.6388 20.3067 88.4788 22.2C90.3454 24.0933 92.7721 25.04 95.7588 25.04C97.5188 25.04 99.1188 24.64 100.559 23.84C101.999 23.0133 103.079 21.9067 103.799 20.52L107.799 22.8C106.625 24.8533 104.959 26.4933 102.799 27.72C100.665 28.92 98.3188 29.52 95.7588 29.52ZM129.665 29L127.705 23.36H115.785L113.825 29H108.825L118.985 0.999998H124.505L134.625 29H129.665ZM117.305 19.04H126.185L121.745 6.4L117.305 19.04ZM164.436 0.999998V29H159.836V9.04L151.316 23.12H150.756L142.236 9V29H137.636V0.999998H142.596L151.036 15L159.516 0.999998H164.436ZM180.339 0.999998C182.979 0.999998 185.179 1.88 186.939 3.64C188.725 5.4 189.619 7.58667 189.619 10.2C189.619 12.7867 188.725 14.9733 186.939 16.76C185.179 18.52 182.979 19.4 180.339 19.4H174.619V29H170.019V0.999998H180.339ZM180.339 15.08C181.699 15.08 182.819 14.6267 183.699 13.72C184.579 12.7867 185.019 11.6133 185.019 10.2C185.019 8.78667 184.579 7.62667 183.699 6.72C182.819 5.78667 181.699 5.32 180.339 5.32H174.619V15.08H180.339ZM211.573 26.88C209.599 28.64 207.053 29.52 203.933 29.52C200.813 29.52 198.266 28.64 196.293 26.88C194.319 25.0933 193.333 22.7067 193.333 19.72V0.999998H197.933V19.44C197.933 21.1467 198.426 22.5067 199.413 23.52C200.426 24.5333 201.933 25.04 203.933 25.04C205.933 25.04 207.426 24.5333 208.413 23.52C209.426 22.5067 209.933 21.1467 209.933 19.44V0.999998H214.533V19.72C214.533 22.7067 213.546 25.0933 211.573 26.88ZM229.143 29.52C226.45 29.52 224.157 28.9067 222.263 27.68C220.397 26.4533 219.09 24.7733 218.343 22.64L222.303 20.32C223.423 23.4667 225.743 25.04 229.263 25.04C230.997 25.04 232.29 24.7067 233.143 24.04C234.023 23.3467 234.463 22.4533 234.463 21.36C234.463 20.2133 233.997 19.3467 233.063 18.76C232.13 18.1467 230.477 17.48 228.103 16.76C226.77 16.36 225.69 15.9867 224.863 15.64C224.037 15.2933 223.157 14.8133 222.223 14.2C221.317 13.56 220.637 12.7733 220.183 11.84C219.73 10.9067 219.503 9.81333 219.503 8.56C219.503 6.08 220.383 4.12 222.143 2.68C223.903 1.21333 226.023 0.479998 228.503 0.479998C230.743 0.479998 232.703 1.02666 234.383 2.12C236.063 3.21333 237.357 4.72 238.263 6.64L234.383 8.88C233.21 6.26667 231.25 4.96 228.503 4.96C227.17 4.96 226.103 5.28 225.303 5.92C224.503 6.53333 224.103 7.37333 224.103 8.44C224.103 9.48 224.503 10.3067 225.303 10.92C226.13 11.5067 227.61 12.1333 229.743 12.8C230.81 13.1467 231.583 13.4133 232.063 13.6C232.57 13.76 233.263 14.0267 234.143 14.4C235.05 14.7733 235.73 15.1467 236.183 15.52C236.637 15.8933 237.117 16.36 237.623 16.92C238.157 17.48 238.53 18.12 238.743 18.84C238.957 19.56 239.063 20.3733 239.063 21.28C239.063 23.8133 238.143 25.8267 236.303 27.32C234.49 28.7867 232.103 29.52 229.143 29.52Z" fill="#00FF57"/>
</svg>
